<mxfile host="app.diagrams.net" modified="2021-12-03T07:42:46.255Z" agent="5.0 (Windows NT 10.0; Win64; x64) AppleWebKit/537.36 (KHTML, like Gecko) Chrome/94.0.4606.61 Safari/537.36" etag="dkvV-iXzgy6axYeyqcjz" version="15.8.8" type="github">
  <diagram id="C5RBs43oDa-KdzZeNtuy" name="Page-1">
    <mxGraphModel dx="1422" dy="754" grid="1" gridSize="10" guides="1" tooltips="1" connect="1" arrows="1" fold="1" page="1" pageScale="1" pageWidth="827" pageHeight="1169" math="0" shadow="0">
      <root>
        <mxCell id="WIyWlLk6GJQsqaUBKTNV-0" />
        <mxCell id="WIyWlLk6GJQsqaUBKTNV-1" parent="WIyWlLk6GJQsqaUBKTNV-0" />
        <mxCell id="9godZGXGINCwYg5NOnyd-0" value="状态机" style="swimlane;childLayout=stackLayout;resizeParent=1;resizeParentMax=0;startSize=20;flipH=1;" parent="WIyWlLk6GJQsqaUBKTNV-1" vertex="1">
          <mxGeometry x="30" y="40" width="980" height="650" as="geometry" />
        </mxCell>
        <mxCell id="9godZGXGINCwYg5NOnyd-1" value="结算申请单" style="swimlane;startSize=20;" parent="9godZGXGINCwYg5NOnyd-0" vertex="1">
          <mxGeometry y="20" width="410" height="630" as="geometry" />
        </mxCell>
        <mxCell id="9godZGXGINCwYg5NOnyd-25" style="edgeStyle=orthogonalEdgeStyle;rounded=0;orthogonalLoop=1;jettySize=auto;html=1;exitX=0.5;exitY=1;exitDx=0;exitDy=0;entryX=0.5;entryY=0;entryDx=0;entryDy=0;" parent="9godZGXGINCwYg5NOnyd-1" target="9godZGXGINCwYg5NOnyd-7" edge="1">
          <mxGeometry relative="1" as="geometry">
            <mxPoint x="173" y="60" as="sourcePoint" />
          </mxGeometry>
        </mxCell>
        <mxCell id="9godZGXGINCwYg5NOnyd-2" value="" style="ellipse;fillColor=#000000;strokeColor=none;" parent="9godZGXGINCwYg5NOnyd-1" vertex="1">
          <mxGeometry x="163" y="40" width="20" height="20" as="geometry" />
        </mxCell>
        <mxCell id="9godZGXGINCwYg5NOnyd-7" value="0： 受理中" style="swimlane;fontStyle=1;align=center;verticalAlign=middle;childLayout=stackLayout;horizontal=1;startSize=30;horizontalStack=0;resizeParent=0;resizeLast=1;container=0;fontColor=#000000;collapsible=0;rounded=1;arcSize=30;strokeColor=#ff0000;fillColor=#ffffc0;swimlaneFillColor=#ffffc0;dropTarget=0;" parent="9godZGXGINCwYg5NOnyd-1" vertex="1">
          <mxGeometry x="93" y="100" width="160" height="60" as="geometry" />
        </mxCell>
        <mxCell id="9godZGXGINCwYg5NOnyd-8" value="落单初始态" style="text;html=1;strokeColor=none;fillColor=none;align=center;verticalAlign=middle;spacingLeft=4;spacingRight=4;whiteSpace=wrap;overflow=hidden;rotatable=0;fontColor=#000000;" parent="9godZGXGINCwYg5NOnyd-7" vertex="1">
          <mxGeometry y="30" width="160" height="30" as="geometry" />
        </mxCell>
        <mxCell id="9godZGXGINCwYg5NOnyd-21" value="2：清分完成" style="swimlane;fontStyle=1;align=center;verticalAlign=middle;childLayout=stackLayout;horizontal=1;startSize=30;horizontalStack=0;resizeParent=0;resizeLast=1;container=0;fontColor=#000000;collapsible=0;rounded=1;arcSize=30;strokeColor=#ff0000;fillColor=#ffffc0;swimlaneFillColor=#ffffc0;dropTarget=0;" parent="9godZGXGINCwYg5NOnyd-1" vertex="1">
          <mxGeometry x="23" y="330" width="160" height="60" as="geometry" />
        </mxCell>
        <mxCell id="9godZGXGINCwYg5NOnyd-22" value="对应的所有清分明细，清分完成后" style="text;html=1;strokeColor=none;fillColor=none;align=center;verticalAlign=middle;spacingLeft=4;spacingRight=4;whiteSpace=wrap;overflow=hidden;rotatable=0;fontColor=#000000;" parent="9godZGXGINCwYg5NOnyd-21" vertex="1">
          <mxGeometry y="30" width="160" height="30" as="geometry" />
        </mxCell>
        <mxCell id="9godZGXGINCwYg5NOnyd-23" value="3：清分失败" style="swimlane;fontStyle=1;align=center;verticalAlign=middle;childLayout=stackLayout;horizontal=1;startSize=30;horizontalStack=0;resizeParent=0;resizeLast=1;container=0;fontColor=#000000;collapsible=0;rounded=1;arcSize=30;strokeColor=#ff0000;fillColor=#ffffc0;swimlaneFillColor=#ffffc0;dropTarget=0;" parent="9godZGXGINCwYg5NOnyd-1" vertex="1">
          <mxGeometry x="213" y="330" width="160" height="60" as="geometry" />
        </mxCell>
        <mxCell id="9godZGXGINCwYg5NOnyd-24" value="退款清分场景才会有的，退款清分失败" style="text;html=1;strokeColor=none;fillColor=none;align=center;verticalAlign=middle;spacingLeft=4;spacingRight=4;whiteSpace=wrap;overflow=hidden;rotatable=0;fontColor=#000000;" parent="9godZGXGINCwYg5NOnyd-23" vertex="1">
          <mxGeometry y="30" width="160" height="30" as="geometry" />
        </mxCell>
        <mxCell id="9godZGXGINCwYg5NOnyd-120" value="4：结算成功" style="swimlane;fontStyle=1;align=center;verticalAlign=middle;childLayout=stackLayout;horizontal=1;startSize=30;horizontalStack=0;resizeParent=0;resizeLast=1;container=0;fontColor=#000000;collapsible=0;rounded=1;arcSize=30;strokeColor=#ff0000;fillColor=#ffffc0;swimlaneFillColor=#ffffc0;dropTarget=0;" parent="9godZGXGINCwYg5NOnyd-1" vertex="1">
          <mxGeometry x="23" y="450" width="160" height="60" as="geometry" />
        </mxCell>
        <mxCell id="9godZGXGINCwYg5NOnyd-121" value="打款成功" style="text;html=1;strokeColor=none;fillColor=none;align=center;verticalAlign=middle;spacingLeft=4;spacingRight=4;whiteSpace=wrap;overflow=hidden;rotatable=0;fontColor=#000000;" parent="9godZGXGINCwYg5NOnyd-120" vertex="1">
          <mxGeometry y="30" width="160" height="30" as="geometry" />
        </mxCell>
        <mxCell id="9godZGXGINCwYg5NOnyd-122" style="edgeStyle=orthogonalEdgeStyle;rounded=0;orthogonalLoop=1;jettySize=auto;html=1;exitX=0.5;exitY=1;exitDx=0;exitDy=0;" parent="9godZGXGINCwYg5NOnyd-1" source="9godZGXGINCwYg5NOnyd-22" target="9godZGXGINCwYg5NOnyd-120" edge="1">
          <mxGeometry relative="1" as="geometry" />
        </mxCell>
        <mxCell id="JepZI6qPRmWvE8bCLH6A-1" value="" style="ellipse;html=1;shape=endState;fillColor=#000000;strokeColor=#ff0000;" vertex="1" parent="9godZGXGINCwYg5NOnyd-1">
          <mxGeometry x="278" y="560" width="30" height="30" as="geometry" />
        </mxCell>
        <mxCell id="JepZI6qPRmWvE8bCLH6A-19" style="edgeStyle=orthogonalEdgeStyle;rounded=0;orthogonalLoop=1;jettySize=auto;html=1;exitX=0.5;exitY=1;exitDx=0;exitDy=0;entryX=0;entryY=0.5;entryDx=0;entryDy=0;" edge="1" parent="9godZGXGINCwYg5NOnyd-1" source="9godZGXGINCwYg5NOnyd-121" target="JepZI6qPRmWvE8bCLH6A-1">
          <mxGeometry relative="1" as="geometry">
            <mxPoint x="103" y="580" as="targetPoint" />
          </mxGeometry>
        </mxCell>
        <mxCell id="9godZGXGINCwYg5NOnyd-4" value="清分明细单" style="swimlane;startSize=20;" parent="9godZGXGINCwYg5NOnyd-0" vertex="1">
          <mxGeometry x="410" y="20" width="570" height="630" as="geometry" />
        </mxCell>
        <mxCell id="9godZGXGINCwYg5NOnyd-30" value="" style="ellipse;fillColor=#000000;strokeColor=none;" parent="9godZGXGINCwYg5NOnyd-4" vertex="1">
          <mxGeometry x="259" y="50" width="20" height="20" as="geometry" />
        </mxCell>
        <mxCell id="9godZGXGINCwYg5NOnyd-31" value="0： 初始态" style="swimlane;fontStyle=1;align=center;verticalAlign=middle;childLayout=stackLayout;horizontal=1;startSize=30;horizontalStack=0;resizeParent=0;resizeLast=1;container=0;fontColor=#000000;collapsible=0;rounded=1;arcSize=30;strokeColor=#ff0000;fillColor=#ffffc0;swimlaneFillColor=#ffffc0;dropTarget=0;" parent="9godZGXGINCwYg5NOnyd-4" vertex="1">
          <mxGeometry x="189" y="110" width="160" height="60" as="geometry" />
        </mxCell>
        <mxCell id="9godZGXGINCwYg5NOnyd-32" value="落明细单" style="text;html=1;strokeColor=none;fillColor=none;align=center;verticalAlign=middle;spacingLeft=4;spacingRight=4;whiteSpace=wrap;overflow=hidden;rotatable=0;fontColor=#000000;" parent="9godZGXGINCwYg5NOnyd-31" vertex="1">
          <mxGeometry y="30" width="160" height="30" as="geometry" />
        </mxCell>
        <mxCell id="9godZGXGINCwYg5NOnyd-29" style="edgeStyle=orthogonalEdgeStyle;rounded=0;orthogonalLoop=1;jettySize=auto;html=1;exitX=0.5;exitY=1;exitDx=0;exitDy=0;entryX=0.5;entryY=0;entryDx=0;entryDy=0;" parent="9godZGXGINCwYg5NOnyd-4" source="9godZGXGINCwYg5NOnyd-30" target="9godZGXGINCwYg5NOnyd-31" edge="1">
          <mxGeometry relative="1" as="geometry" />
        </mxCell>
        <mxCell id="9godZGXGINCwYg5NOnyd-33" value="2：清分完成" style="swimlane;fontStyle=1;align=center;verticalAlign=middle;childLayout=stackLayout;horizontal=1;startSize=30;horizontalStack=0;resizeParent=0;resizeLast=1;container=0;fontColor=#000000;collapsible=0;rounded=1;arcSize=30;strokeColor=#ff0000;fillColor=#ffffc0;swimlaneFillColor=#ffffc0;dropTarget=0;" parent="9godZGXGINCwYg5NOnyd-4" vertex="1">
          <mxGeometry x="189" y="280" width="160" height="60" as="geometry" />
        </mxCell>
        <mxCell id="9godZGXGINCwYg5NOnyd-34" value="转账清分完成" style="text;html=1;strokeColor=none;fillColor=none;align=center;verticalAlign=middle;spacingLeft=4;spacingRight=4;whiteSpace=wrap;overflow=hidden;rotatable=0;fontColor=#000000;" parent="9godZGXGINCwYg5NOnyd-33" vertex="1">
          <mxGeometry y="30" width="160" height="30" as="geometry" />
        </mxCell>
        <mxCell id="9godZGXGINCwYg5NOnyd-35" value="3：清分失败" style="swimlane;fontStyle=1;align=center;verticalAlign=middle;childLayout=stackLayout;horizontal=1;startSize=30;horizontalStack=0;resizeParent=0;resizeLast=1;container=0;fontColor=#000000;collapsible=0;rounded=1;arcSize=30;strokeColor=#ff0000;fillColor=#ffffc0;swimlaneFillColor=#ffffc0;dropTarget=0;" parent="9godZGXGINCwYg5NOnyd-4" vertex="1">
          <mxGeometry x="380" y="280" width="160" height="60" as="geometry" />
        </mxCell>
        <mxCell id="9godZGXGINCwYg5NOnyd-36" value="退款清分失败，该状态为终态" style="text;html=1;strokeColor=none;fillColor=none;align=center;verticalAlign=middle;spacingLeft=4;spacingRight=4;whiteSpace=wrap;overflow=hidden;rotatable=0;fontColor=#000000;" parent="9godZGXGINCwYg5NOnyd-35" vertex="1">
          <mxGeometry y="30" width="160" height="30" as="geometry" />
        </mxCell>
        <mxCell id="9godZGXGINCwYg5NOnyd-38" value="1： 清分异常" style="swimlane;fontStyle=1;align=center;verticalAlign=middle;childLayout=stackLayout;horizontal=1;startSize=30;horizontalStack=0;resizeParent=0;resizeLast=1;container=0;fontColor=#000000;collapsible=0;rounded=1;arcSize=30;strokeColor=#ff0000;fillColor=#ffffc0;swimlaneFillColor=#ffffc0;dropTarget=0;" parent="9godZGXGINCwYg5NOnyd-4" vertex="1">
          <mxGeometry x="10" y="220" width="130" height="50" as="geometry" />
        </mxCell>
        <mxCell id="9godZGXGINCwYg5NOnyd-39" value="转账清分发生异常" style="text;html=1;strokeColor=none;fillColor=none;align=center;verticalAlign=middle;spacingLeft=4;spacingRight=4;whiteSpace=wrap;overflow=hidden;rotatable=0;fontColor=#000000;" parent="9godZGXGINCwYg5NOnyd-38" vertex="1">
          <mxGeometry y="30" width="130" height="20" as="geometry" />
        </mxCell>
        <mxCell id="JepZI6qPRmWvE8bCLH6A-5" value="" style="ellipse;html=1;shape=endState;fillColor=#000000;strokeColor=#ff0000;" vertex="1" parent="9godZGXGINCwYg5NOnyd-4">
          <mxGeometry x="349" y="465" width="30" height="30" as="geometry" />
        </mxCell>
        <mxCell id="JepZI6qPRmWvE8bCLH6A-21" style="edgeStyle=orthogonalEdgeStyle;rounded=0;orthogonalLoop=1;jettySize=auto;html=1;exitX=0;exitY=0.5;exitDx=0;exitDy=0;entryX=0.438;entryY=-0.05;entryDx=0;entryDy=0;entryPerimeter=0;" edge="1" parent="9godZGXGINCwYg5NOnyd-4" source="9godZGXGINCwYg5NOnyd-31" target="9godZGXGINCwYg5NOnyd-38">
          <mxGeometry relative="1" as="geometry">
            <mxPoint x="100" y="140" as="targetPoint" />
          </mxGeometry>
        </mxCell>
        <mxCell id="JepZI6qPRmWvE8bCLH6A-22" style="edgeStyle=orthogonalEdgeStyle;rounded=0;orthogonalLoop=1;jettySize=auto;html=1;exitX=0.5;exitY=1;exitDx=0;exitDy=0;entryX=0.5;entryY=0;entryDx=0;entryDy=0;" edge="1" parent="9godZGXGINCwYg5NOnyd-4" source="9godZGXGINCwYg5NOnyd-32" target="9godZGXGINCwYg5NOnyd-33">
          <mxGeometry relative="1" as="geometry" />
        </mxCell>
        <mxCell id="JepZI6qPRmWvE8bCLH6A-25" style="edgeStyle=orthogonalEdgeStyle;rounded=0;orthogonalLoop=1;jettySize=auto;html=1;exitX=0.5;exitY=1;exitDx=0;exitDy=0;entryX=0;entryY=0.5;entryDx=0;entryDy=0;" edge="1" parent="9godZGXGINCwYg5NOnyd-4" source="9godZGXGINCwYg5NOnyd-34" target="JepZI6qPRmWvE8bCLH6A-5">
          <mxGeometry relative="1" as="geometry">
            <mxPoint x="269" y="490" as="targetPoint" />
          </mxGeometry>
        </mxCell>
        <mxCell id="JepZI6qPRmWvE8bCLH6A-26" style="edgeStyle=orthogonalEdgeStyle;rounded=0;orthogonalLoop=1;jettySize=auto;html=1;exitX=0.5;exitY=1;exitDx=0;exitDy=0;entryX=1;entryY=0.5;entryDx=0;entryDy=0;" edge="1" parent="9godZGXGINCwYg5NOnyd-4" source="9godZGXGINCwYg5NOnyd-36" target="JepZI6qPRmWvE8bCLH6A-5">
          <mxGeometry relative="1" as="geometry">
            <mxPoint x="460" y="480" as="targetPoint" />
          </mxGeometry>
        </mxCell>
        <mxCell id="JepZI6qPRmWvE8bCLH6A-28" style="edgeStyle=orthogonalEdgeStyle;rounded=0;orthogonalLoop=1;jettySize=auto;html=1;exitX=1;exitY=0.25;exitDx=0;exitDy=0;entryX=0.5;entryY=0;entryDx=0;entryDy=0;" edge="1" parent="9godZGXGINCwYg5NOnyd-4" source="9godZGXGINCwYg5NOnyd-39" target="9godZGXGINCwYg5NOnyd-35">
          <mxGeometry relative="1" as="geometry" />
        </mxCell>
        <mxCell id="JepZI6qPRmWvE8bCLH6A-30" style="edgeStyle=orthogonalEdgeStyle;rounded=0;orthogonalLoop=1;jettySize=auto;html=1;exitX=0.5;exitY=1;exitDx=0;exitDy=0;entryX=0.5;entryY=0;entryDx=0;entryDy=0;" edge="1" parent="9godZGXGINCwYg5NOnyd-4" source="9godZGXGINCwYg5NOnyd-32" target="9godZGXGINCwYg5NOnyd-35">
          <mxGeometry relative="1" as="geometry" />
        </mxCell>
        <mxCell id="9godZGXGINCwYg5NOnyd-19" value="1： 申请成功" style="swimlane;fontStyle=1;align=center;verticalAlign=middle;childLayout=stackLayout;horizontal=1;startSize=30;horizontalStack=0;resizeParent=0;resizeLast=1;container=0;fontColor=#000000;collapsible=0;rounded=1;arcSize=30;strokeColor=#ff0000;fillColor=#ffffc0;swimlaneFillColor=#ffffc0;dropTarget=0;" parent="WIyWlLk6GJQsqaUBKTNV-1" vertex="1">
          <mxGeometry x="123" y="270" width="160" height="60" as="geometry" />
        </mxCell>
        <mxCell id="9godZGXGINCwYg5NOnyd-20" value="清分明细单落单后修改为此状态" style="text;html=1;strokeColor=none;fillColor=none;align=center;verticalAlign=middle;spacingLeft=4;spacingRight=4;whiteSpace=wrap;overflow=hidden;rotatable=0;fontColor=#000000;" parent="9godZGXGINCwYg5NOnyd-19" vertex="1">
          <mxGeometry y="30" width="160" height="30" as="geometry" />
        </mxCell>
        <mxCell id="9godZGXGINCwYg5NOnyd-26" style="edgeStyle=orthogonalEdgeStyle;rounded=0;orthogonalLoop=1;jettySize=auto;html=1;exitX=0.5;exitY=1;exitDx=0;exitDy=0;entryX=0.5;entryY=0;entryDx=0;entryDy=0;" parent="WIyWlLk6GJQsqaUBKTNV-1" source="9godZGXGINCwYg5NOnyd-8" target="9godZGXGINCwYg5NOnyd-19" edge="1">
          <mxGeometry relative="1" as="geometry" />
        </mxCell>
        <mxCell id="9godZGXGINCwYg5NOnyd-27" style="edgeStyle=orthogonalEdgeStyle;rounded=0;orthogonalLoop=1;jettySize=auto;html=1;exitX=0.5;exitY=1;exitDx=0;exitDy=0;entryX=0.5;entryY=0;entryDx=0;entryDy=0;" parent="WIyWlLk6GJQsqaUBKTNV-1" source="9godZGXGINCwYg5NOnyd-20" edge="1">
          <mxGeometry relative="1" as="geometry">
            <mxPoint x="133" y="390" as="targetPoint" />
          </mxGeometry>
        </mxCell>
        <mxCell id="9godZGXGINCwYg5NOnyd-88" style="edgeStyle=orthogonalEdgeStyle;rounded=0;orthogonalLoop=1;jettySize=auto;html=1;exitX=0.5;exitY=1;exitDx=0;exitDy=0;" parent="WIyWlLk6GJQsqaUBKTNV-1" source="9godZGXGINCwYg5NOnyd-20" target="9godZGXGINCwYg5NOnyd-23" edge="1">
          <mxGeometry relative="1" as="geometry" />
        </mxCell>
        <mxCell id="9godZGXGINCwYg5NOnyd-5" value="场次单" style="swimlane;startSize=20;" parent="WIyWlLk6GJQsqaUBKTNV-1" vertex="1">
          <mxGeometry x="1010" y="60" width="370" height="630" as="geometry" />
        </mxCell>
        <mxCell id="9godZGXGINCwYg5NOnyd-44" value="" style="ellipse;fillColor=#000000;strokeColor=none;" parent="9godZGXGINCwYg5NOnyd-5" vertex="1">
          <mxGeometry x="130" y="50" width="20" height="20" as="geometry" />
        </mxCell>
        <mxCell id="9godZGXGINCwYg5NOnyd-45" value="0： 未出场" style="swimlane;fontStyle=1;align=center;verticalAlign=middle;childLayout=stackLayout;horizontal=1;startSize=30;horizontalStack=0;resizeParent=0;resizeLast=1;container=0;fontColor=#000000;collapsible=0;rounded=1;arcSize=30;strokeColor=#ff0000;fillColor=#ffffc0;swimlaneFillColor=#ffffc0;dropTarget=0;" parent="9godZGXGINCwYg5NOnyd-5" vertex="1">
          <mxGeometry x="60" y="110" width="160" height="60" as="geometry" />
        </mxCell>
        <mxCell id="9godZGXGINCwYg5NOnyd-43" style="edgeStyle=orthogonalEdgeStyle;rounded=0;orthogonalLoop=1;jettySize=auto;html=1;exitX=0.5;exitY=1;exitDx=0;exitDy=0;entryX=0.5;entryY=0;entryDx=0;entryDy=0;" parent="9godZGXGINCwYg5NOnyd-5" source="9godZGXGINCwYg5NOnyd-44" target="9godZGXGINCwYg5NOnyd-45" edge="1">
          <mxGeometry relative="1" as="geometry" />
        </mxCell>
        <mxCell id="9godZGXGINCwYg5NOnyd-52" value="1： 已出场" style="swimlane;fontStyle=1;align=center;verticalAlign=middle;childLayout=stackLayout;horizontal=1;startSize=30;horizontalStack=0;resizeParent=0;resizeLast=1;container=0;fontColor=#000000;collapsible=0;rounded=1;arcSize=30;strokeColor=#ff0000;fillColor=#ffffc0;swimlaneFillColor=#ffffc0;dropTarget=0;" parent="9godZGXGINCwYg5NOnyd-5" vertex="1">
          <mxGeometry x="60" y="270" width="160" height="60" as="geometry" />
        </mxCell>
        <mxCell id="9godZGXGINCwYg5NOnyd-53" value="生成了预结单" style="text;html=1;strokeColor=none;fillColor=none;align=center;verticalAlign=middle;spacingLeft=4;spacingRight=4;whiteSpace=wrap;overflow=hidden;rotatable=0;fontColor=#000000;" parent="9godZGXGINCwYg5NOnyd-52" vertex="1">
          <mxGeometry y="30" width="160" height="30" as="geometry" />
        </mxCell>
        <mxCell id="9godZGXGINCwYg5NOnyd-54" style="edgeStyle=orthogonalEdgeStyle;rounded=0;orthogonalLoop=1;jettySize=auto;html=1;exitX=0.5;exitY=1;exitDx=0;exitDy=0;entryX=0.5;entryY=0;entryDx=0;entryDy=0;" parent="9godZGXGINCwYg5NOnyd-5" source="9godZGXGINCwYg5NOnyd-46" target="9godZGXGINCwYg5NOnyd-52" edge="1">
          <mxGeometry relative="1" as="geometry" />
        </mxCell>
        <mxCell id="9godZGXGINCwYg5NOnyd-46" value="落单初始态" style="text;html=1;strokeColor=none;fillColor=none;align=center;verticalAlign=middle;spacingLeft=4;spacingRight=4;whiteSpace=wrap;overflow=hidden;rotatable=0;fontColor=#000000;" parent="9godZGXGINCwYg5NOnyd-5" vertex="1">
          <mxGeometry x="60" y="140" width="160" height="30" as="geometry" />
        </mxCell>
        <mxCell id="JepZI6qPRmWvE8bCLH6A-13" value="" style="ellipse;html=1;shape=endState;fillColor=#000000;strokeColor=#ff0000;" vertex="1" parent="9godZGXGINCwYg5NOnyd-5">
          <mxGeometry x="125" y="380" width="30" height="30" as="geometry" />
        </mxCell>
        <mxCell id="JepZI6qPRmWvE8bCLH6A-14" style="edgeStyle=orthogonalEdgeStyle;rounded=0;orthogonalLoop=1;jettySize=auto;html=1;exitX=0.5;exitY=1;exitDx=0;exitDy=0;" edge="1" parent="9godZGXGINCwYg5NOnyd-5" source="9godZGXGINCwYg5NOnyd-53" target="JepZI6qPRmWvE8bCLH6A-13">
          <mxGeometry relative="1" as="geometry" />
        </mxCell>
        <mxCell id="9godZGXGINCwYg5NOnyd-70" value="打款单" style="swimlane;startSize=20;" parent="WIyWlLk6GJQsqaUBKTNV-1" vertex="1">
          <mxGeometry x="1730" y="60" width="490" height="630" as="geometry" />
        </mxCell>
        <mxCell id="9godZGXGINCwYg5NOnyd-71" value="" style="ellipse;fillColor=#000000;strokeColor=none;" parent="9godZGXGINCwYg5NOnyd-70" vertex="1">
          <mxGeometry x="190" y="30" width="20" height="20" as="geometry" />
        </mxCell>
        <mxCell id="9godZGXGINCwYg5NOnyd-72" value="0： 初始态" style="swimlane;fontStyle=1;align=center;verticalAlign=middle;childLayout=stackLayout;horizontal=1;startSize=30;horizontalStack=0;resizeParent=0;resizeLast=1;container=0;fontColor=#000000;collapsible=0;rounded=1;arcSize=30;strokeColor=#ff0000;fillColor=#ffffc0;swimlaneFillColor=#ffffc0;dropTarget=0;" parent="9godZGXGINCwYg5NOnyd-70" vertex="1">
          <mxGeometry x="120" y="90" width="160" height="60" as="geometry" />
        </mxCell>
        <mxCell id="9godZGXGINCwYg5NOnyd-73" style="edgeStyle=orthogonalEdgeStyle;rounded=0;orthogonalLoop=1;jettySize=auto;html=1;exitX=0.5;exitY=1;exitDx=0;exitDy=0;entryX=0.5;entryY=0;entryDx=0;entryDy=0;" parent="9godZGXGINCwYg5NOnyd-70" source="9godZGXGINCwYg5NOnyd-71" target="9godZGXGINCwYg5NOnyd-72" edge="1">
          <mxGeometry relative="1" as="geometry" />
        </mxCell>
        <mxCell id="9godZGXGINCwYg5NOnyd-74" value="2：结算打款异常" style="swimlane;fontStyle=1;align=center;verticalAlign=middle;childLayout=stackLayout;horizontal=1;startSize=30;horizontalStack=0;resizeParent=0;resizeLast=1;container=0;fontColor=#000000;collapsible=0;rounded=1;arcSize=30;strokeColor=#ff0000;fillColor=#ffffc0;swimlaneFillColor=#ffffc0;dropTarget=0;" parent="9godZGXGINCwYg5NOnyd-70" vertex="1">
          <mxGeometry x="240" y="360" width="130" height="50" as="geometry" />
        </mxCell>
        <mxCell id="9godZGXGINCwYg5NOnyd-75" value="资产交换返回异常状态" style="text;html=1;strokeColor=none;fillColor=none;align=center;verticalAlign=middle;spacingLeft=4;spacingRight=4;whiteSpace=wrap;overflow=hidden;rotatable=0;fontColor=#000000;" parent="9godZGXGINCwYg5NOnyd-74" vertex="1">
          <mxGeometry y="30" width="130" height="20" as="geometry" />
        </mxCell>
        <mxCell id="9godZGXGINCwYg5NOnyd-76" value="1： 结算打款中" style="swimlane;fontStyle=1;align=center;verticalAlign=middle;childLayout=stackLayout;horizontal=1;startSize=30;horizontalStack=0;resizeParent=0;resizeLast=1;container=0;fontColor=#000000;collapsible=0;rounded=1;arcSize=30;strokeColor=#ff0000;fillColor=#ffffc0;swimlaneFillColor=#ffffc0;dropTarget=0;" parent="9godZGXGINCwYg5NOnyd-70" vertex="1">
          <mxGeometry x="60" y="220" width="160" height="60" as="geometry" />
        </mxCell>
        <mxCell id="9godZGXGINCwYg5NOnyd-77" value="调用资产交换，返回的中间态" style="text;html=1;strokeColor=none;fillColor=none;align=center;verticalAlign=middle;spacingLeft=4;spacingRight=4;whiteSpace=wrap;overflow=hidden;rotatable=0;fontColor=#000000;" parent="9godZGXGINCwYg5NOnyd-76" vertex="1">
          <mxGeometry y="30" width="160" height="30" as="geometry" />
        </mxCell>
        <mxCell id="9godZGXGINCwYg5NOnyd-80" value="落单初始态" style="text;html=1;strokeColor=none;fillColor=none;align=center;verticalAlign=middle;spacingLeft=4;spacingRight=4;whiteSpace=wrap;overflow=hidden;rotatable=0;fontColor=#000000;" parent="9godZGXGINCwYg5NOnyd-70" vertex="1">
          <mxGeometry x="120" y="120" width="160" height="30" as="geometry" />
        </mxCell>
        <mxCell id="9godZGXGINCwYg5NOnyd-81" value="3：结算打款成功" style="swimlane;fontStyle=1;align=center;verticalAlign=middle;childLayout=stackLayout;horizontal=1;startSize=30;horizontalStack=0;resizeParent=0;resizeLast=1;container=0;fontColor=#000000;collapsible=0;rounded=1;arcSize=30;strokeColor=#ff0000;fillColor=#ffffc0;swimlaneFillColor=#ffffc0;dropTarget=0;" parent="9godZGXGINCwYg5NOnyd-70" vertex="1">
          <mxGeometry x="20" y="340" width="160" height="60" as="geometry" />
        </mxCell>
        <mxCell id="9godZGXGINCwYg5NOnyd-82" value="已打款给商户" style="text;html=1;strokeColor=none;fillColor=none;align=center;verticalAlign=middle;spacingLeft=4;spacingRight=4;whiteSpace=wrap;overflow=hidden;rotatable=0;fontColor=#000000;" parent="9godZGXGINCwYg5NOnyd-81" vertex="1">
          <mxGeometry y="30" width="160" height="30" as="geometry" />
        </mxCell>
        <mxCell id="JepZI6qPRmWvE8bCLH6A-31" value="" style="ellipse;html=1;shape=endState;fillColor=#000000;strokeColor=#ff0000;" vertex="1" parent="9godZGXGINCwYg5NOnyd-70">
          <mxGeometry x="200" y="525" width="30" height="30" as="geometry" />
        </mxCell>
        <mxCell id="9godZGXGINCwYg5NOnyd-56" value="预结单" style="swimlane;startSize=20;" parent="WIyWlLk6GJQsqaUBKTNV-1" vertex="1">
          <mxGeometry x="1380" y="60" width="350" height="630" as="geometry" />
        </mxCell>
        <mxCell id="9godZGXGINCwYg5NOnyd-57" value="" style="ellipse;fillColor=#000000;strokeColor=none;" parent="9godZGXGINCwYg5NOnyd-56" vertex="1">
          <mxGeometry x="130" y="50" width="20" height="20" as="geometry" />
        </mxCell>
        <mxCell id="9godZGXGINCwYg5NOnyd-58" value="0： 未换汇" style="swimlane;fontStyle=1;align=center;verticalAlign=middle;childLayout=stackLayout;horizontal=1;startSize=30;horizontalStack=0;resizeParent=0;resizeLast=1;container=0;fontColor=#000000;collapsible=0;rounded=1;arcSize=30;strokeColor=#ff0000;fillColor=#ffffc0;swimlaneFillColor=#ffffc0;dropTarget=0;" parent="9godZGXGINCwYg5NOnyd-56" vertex="1">
          <mxGeometry x="60" y="110" width="160" height="60" as="geometry" />
        </mxCell>
        <mxCell id="9godZGXGINCwYg5NOnyd-59" style="edgeStyle=orthogonalEdgeStyle;rounded=0;orthogonalLoop=1;jettySize=auto;html=1;exitX=0.5;exitY=1;exitDx=0;exitDy=0;entryX=0.5;entryY=0;entryDx=0;entryDy=0;" parent="9godZGXGINCwYg5NOnyd-56" source="9godZGXGINCwYg5NOnyd-57" target="9godZGXGINCwYg5NOnyd-58" edge="1">
          <mxGeometry relative="1" as="geometry" />
        </mxCell>
        <mxCell id="9godZGXGINCwYg5NOnyd-60" value="2：结算中" style="swimlane;fontStyle=1;align=center;verticalAlign=middle;childLayout=stackLayout;horizontal=1;startSize=30;horizontalStack=0;resizeParent=0;resizeLast=1;container=0;fontColor=#000000;collapsible=0;rounded=1;arcSize=30;strokeColor=#ff0000;fillColor=#ffffc0;swimlaneFillColor=#ffffc0;dropTarget=0;" parent="9godZGXGINCwYg5NOnyd-56" vertex="1">
          <mxGeometry x="60" y="330" width="160" height="60" as="geometry" />
        </mxCell>
        <mxCell id="9godZGXGINCwYg5NOnyd-61" value="生成结算打款单" style="text;html=1;strokeColor=none;fillColor=none;align=center;verticalAlign=middle;spacingLeft=4;spacingRight=4;whiteSpace=wrap;overflow=hidden;rotatable=0;fontColor=#000000;" parent="9godZGXGINCwYg5NOnyd-60" vertex="1">
          <mxGeometry y="30" width="160" height="30" as="geometry" />
        </mxCell>
        <mxCell id="9godZGXGINCwYg5NOnyd-62" value="1： 已换汇" style="swimlane;fontStyle=1;align=center;verticalAlign=middle;childLayout=stackLayout;horizontal=1;startSize=30;horizontalStack=0;resizeParent=0;resizeLast=1;container=0;fontColor=#000000;collapsible=0;rounded=1;arcSize=30;strokeColor=#ff0000;fillColor=#ffffc0;swimlaneFillColor=#ffffc0;dropTarget=0;" parent="9godZGXGINCwYg5NOnyd-56" vertex="1">
          <mxGeometry x="60" y="220" width="160" height="60" as="geometry" />
        </mxCell>
        <mxCell id="9godZGXGINCwYg5NOnyd-63" value="已换汇" style="text;html=1;strokeColor=none;fillColor=none;align=center;verticalAlign=middle;spacingLeft=4;spacingRight=4;whiteSpace=wrap;overflow=hidden;rotatable=0;fontColor=#000000;" parent="9godZGXGINCwYg5NOnyd-62" vertex="1">
          <mxGeometry y="30" width="160" height="30" as="geometry" />
        </mxCell>
        <mxCell id="9godZGXGINCwYg5NOnyd-64" style="edgeStyle=orthogonalEdgeStyle;rounded=0;orthogonalLoop=1;jettySize=auto;html=1;exitX=0.5;exitY=1;exitDx=0;exitDy=0;entryX=0.5;entryY=0;entryDx=0;entryDy=0;" parent="9godZGXGINCwYg5NOnyd-56" source="9godZGXGINCwYg5NOnyd-66" target="9godZGXGINCwYg5NOnyd-62" edge="1">
          <mxGeometry relative="1" as="geometry" />
        </mxCell>
        <mxCell id="9godZGXGINCwYg5NOnyd-65" style="edgeStyle=orthogonalEdgeStyle;rounded=0;orthogonalLoop=1;jettySize=auto;html=1;exitX=0.5;exitY=1;exitDx=0;exitDy=0;entryX=0.5;entryY=0;entryDx=0;entryDy=0;" parent="9godZGXGINCwYg5NOnyd-56" source="9godZGXGINCwYg5NOnyd-63" target="9godZGXGINCwYg5NOnyd-60" edge="1">
          <mxGeometry relative="1" as="geometry" />
        </mxCell>
        <mxCell id="9godZGXGINCwYg5NOnyd-66" value="未换汇" style="text;html=1;strokeColor=none;fillColor=none;align=center;verticalAlign=middle;spacingLeft=4;spacingRight=4;whiteSpace=wrap;overflow=hidden;rotatable=0;fontColor=#000000;" parent="9godZGXGINCwYg5NOnyd-56" vertex="1">
          <mxGeometry x="60" y="140" width="160" height="30" as="geometry" />
        </mxCell>
        <mxCell id="9godZGXGINCwYg5NOnyd-67" value="3：结算完成" style="swimlane;fontStyle=1;align=center;verticalAlign=middle;childLayout=stackLayout;horizontal=1;startSize=30;horizontalStack=0;resizeParent=0;resizeLast=1;container=0;fontColor=#000000;collapsible=0;rounded=1;arcSize=30;strokeColor=#ff0000;fillColor=#ffffc0;swimlaneFillColor=#ffffc0;dropTarget=0;" parent="9godZGXGINCwYg5NOnyd-56" vertex="1">
          <mxGeometry x="60" y="440" width="160" height="60" as="geometry" />
        </mxCell>
        <mxCell id="9godZGXGINCwYg5NOnyd-68" value="已打款给商户" style="text;html=1;strokeColor=none;fillColor=none;align=center;verticalAlign=middle;spacingLeft=4;spacingRight=4;whiteSpace=wrap;overflow=hidden;rotatable=0;fontColor=#000000;" parent="9godZGXGINCwYg5NOnyd-67" vertex="1">
          <mxGeometry y="30" width="160" height="30" as="geometry" />
        </mxCell>
        <mxCell id="9godZGXGINCwYg5NOnyd-69" style="edgeStyle=orthogonalEdgeStyle;rounded=0;orthogonalLoop=1;jettySize=auto;html=1;exitX=0.5;exitY=1;exitDx=0;exitDy=0;" parent="9godZGXGINCwYg5NOnyd-56" source="9godZGXGINCwYg5NOnyd-61" target="9godZGXGINCwYg5NOnyd-67" edge="1">
          <mxGeometry relative="1" as="geometry" />
        </mxCell>
        <mxCell id="JepZI6qPRmWvE8bCLH6A-15" style="edgeStyle=orthogonalEdgeStyle;rounded=0;orthogonalLoop=1;jettySize=auto;html=1;exitX=0;exitY=0.5;exitDx=0;exitDy=0;entryX=0;entryY=0.25;entryDx=0;entryDy=0;" edge="1" parent="9godZGXGINCwYg5NOnyd-56" source="9godZGXGINCwYg5NOnyd-57" target="9godZGXGINCwYg5NOnyd-63">
          <mxGeometry relative="1" as="geometry">
            <mxPoint x="20" y="260" as="targetPoint" />
            <Array as="points">
              <mxPoint x="20" y="60" />
              <mxPoint x="20" y="258" />
            </Array>
          </mxGeometry>
        </mxCell>
        <mxCell id="JepZI6qPRmWvE8bCLH6A-16" value="" style="ellipse;html=1;shape=endState;fillColor=#000000;strokeColor=#ff0000;" vertex="1" parent="9godZGXGINCwYg5NOnyd-56">
          <mxGeometry x="125" y="540" width="30" height="30" as="geometry" />
        </mxCell>
        <mxCell id="JepZI6qPRmWvE8bCLH6A-17" style="edgeStyle=orthogonalEdgeStyle;rounded=0;orthogonalLoop=1;jettySize=auto;html=1;exitX=0.5;exitY=1;exitDx=0;exitDy=0;entryX=0.5;entryY=0;entryDx=0;entryDy=0;" edge="1" parent="9godZGXGINCwYg5NOnyd-56" source="9godZGXGINCwYg5NOnyd-68" target="JepZI6qPRmWvE8bCLH6A-16">
          <mxGeometry relative="1" as="geometry" />
        </mxCell>
        <mxCell id="JepZI6qPRmWvE8bCLH6A-20" style="edgeStyle=orthogonalEdgeStyle;rounded=0;orthogonalLoop=1;jettySize=auto;html=1;exitX=0.5;exitY=1;exitDx=0;exitDy=0;" edge="1" parent="WIyWlLk6GJQsqaUBKTNV-1" source="9godZGXGINCwYg5NOnyd-24">
          <mxGeometry relative="1" as="geometry">
            <mxPoint x="323" y="620" as="targetPoint" />
          </mxGeometry>
        </mxCell>
        <mxCell id="JepZI6qPRmWvE8bCLH6A-27" style="edgeStyle=orthogonalEdgeStyle;rounded=0;orthogonalLoop=1;jettySize=auto;html=1;exitX=1;exitY=0;exitDx=0;exitDy=0;" edge="1" parent="WIyWlLk6GJQsqaUBKTNV-1" source="9godZGXGINCwYg5NOnyd-39">
          <mxGeometry relative="1" as="geometry">
            <mxPoint x="710" y="340" as="targetPoint" />
          </mxGeometry>
        </mxCell>
        <mxCell id="9godZGXGINCwYg5NOnyd-84" value="4：已撤销" style="swimlane;fontStyle=1;align=center;verticalAlign=middle;childLayout=stackLayout;horizontal=1;startSize=30;horizontalStack=0;resizeParent=0;resizeLast=1;container=0;fontColor=#000000;collapsible=0;rounded=1;arcSize=30;strokeColor=#ff0000;fillColor=#ffffc0;swimlaneFillColor=#ffffc0;dropTarget=0;" parent="WIyWlLk6GJQsqaUBKTNV-1" vertex="1">
          <mxGeometry x="2180" y="270" width="160" height="60" as="geometry" />
        </mxCell>
        <mxCell id="9godZGXGINCwYg5NOnyd-85" value="已打款给商户" style="text;html=1;strokeColor=none;fillColor=none;align=center;verticalAlign=middle;spacingLeft=4;spacingRight=4;whiteSpace=wrap;overflow=hidden;rotatable=0;fontColor=#000000;" parent="9godZGXGINCwYg5NOnyd-84" vertex="1">
          <mxGeometry y="30" width="160" height="30" as="geometry" />
        </mxCell>
      </root>
    </mxGraphModel>
  </diagram>
</mxfile>
